<?xml version="1.0" encoding="utf-8"?>
<!-- Generator: Adobe Illustrator 16.0.0, SVG Export Plug-In . SVG Version: 6.00 Build 0)  -->
<!DOCTYPE svg PUBLIC "-//W3C//DTD SVG 1.1//EN" "http://www.w3.org/Graphics/SVG/1.1/DTD/svg11.dtd">
<svg version="1.1" id="Layer_1" xmlns="http://www.w3.org/2000/svg" xmlns:xlink="http://www.w3.org/1999/xlink" x="0px" y="0px"
	 width="550px" height="309px" viewBox="0 0 550 309" enable-background="new 0 0 550 309" xml:space="preserve">
<title>STRIKE! LogoSTRIKE! logo big</title>
<desc>Created with Sketch.</desc>
<g id="Welcome">
	<g id="Menu-Expanded" transform="translate(-86.000000, -25.000000)">
		<g id="Big-Menu">
			<g id="STRIKE_x21_-Logo">
				<g transform="translate(83.000000, 25.000000)">
					<path id="STRIKE_x21_" d="M42.597,308.369h8.954c27.678,0,40.702-15.929,40.702-41.66v-78.42
						c0-21.238-4.884-32.267-20.351-46.153l-21.165-21.239c-4.884-5.31-6.105-7.76-6.105-15.521V36.351
						c0-3.267,1.221-4.901,4.07-4.901s4.07,1.634,4.07,4.901v80.054h37.853V34.717c0-19.605-8.547-34.309-37.446-34.309h-8.955
						c-28.491,0-39.481,14.704-39.481,37.576v69.026c0,18.788,4.884,32.267,17.909,44.52l21.572,21.239
						c5.698,5.718,6.919,8.985,6.919,17.154v78.828c0,4.085-1.221,6.535-4.477,6.535c-3.256,0-4.07-2.45-4.07-6.535v-91.897H3.523
						v94.757C3.523,295.708,16.548,308.369,42.597,308.369z M117.443,306.327h39.074V38.801h17.909V2.451H99.942v36.351h17.501
						V306.327z M224.852,33.083h3.256c3.663,0,4.07,1.634,4.07,5.31v88.631c0,3.676-1.221,5.31-4.478,5.31h-2.849V33.083z
						 M224.852,166.643h2.849c4.07,0,4.478,2.45,4.478,5.309v124.574c0,4.492,1.221,8.168,2.849,9.802h38.667v-0.816
						c-0.814-2.451-1.628-5.719-1.628-10.212V165.825c0-12.662-8.14-19.605-14.652-22.056c6.105-2.859,13.838-9.394,13.838-25.323
						V30.633c0-18.788-10.583-28.182-24.421-28.182h-61.867v303.876h39.888V166.643z M323.306,2.451h-39.888v303.876h39.888V2.451z
						 M374.138,306.327l-0.407-122.53l12.211,122.53h41.516l-20.758-163.783l19.13-140.094h-39.073L373.73,117.221l0.407-114.771
						h-39.073v303.876H374.138z M435.553,2.451v303.876h67.158v-36.759h-28.084V165.008h23.606v-37.576h-23.606V38.801h27.27V2.451
						H435.553z M512.435,2.451c0,26.14,8.14,191.557,9.361,254.456h21.165c1.221-62.898,9.361-227.907,9.769-254.456H512.435z
						 M549.473,262.217h-34.189v44.11h34.189V262.217z"/>
				</g>
			</g>
		</g>
	</g>
</g>
</svg>
