<?xml version="1.0" encoding="utf-8"?>
<!-- Generator: Adobe Illustrator 16.0.0, SVG Export Plug-In . SVG Version: 6.00 Build 0)  -->
<!DOCTYPE svg PUBLIC "-//W3C//DTD SVG 1.1//EN" "http://www.w3.org/Graphics/SVG/1.1/DTD/svg11.dtd">
<svg version="1.1" id="Layer_1" xmlns="http://www.w3.org/2000/svg" xmlns:xlink="http://www.w3.org/1999/xlink" x="0px" y="0px"
	 width="1199.99px" height="1199.99px" viewBox="0 0 1199.99 1199.99" enable-background="new 0 0 1199.99 1199.99"
	 xml:space="preserve">
<rect x="0" y="0" fill="#B433FF" width="1199.989" height="1199.989"/>
<title>STRIKE! LogoSTRIKE! logo big</title>
<g id="Welcome">
	<g id="Menu-Expanded" transform="translate(-86.000000, -25.000000)">
		<g id="Big-Menu">
			<g id="STRIKE_x21_-Logo">
				<g transform="translate(83.000000, 25.000000)">
					<path id="STRIKE_x21_" d="M177.643,883.405h16.48c50.944,0,74.915-29.32,74.915-76.678V662.39
						c0-39.09-8.99-59.391-37.458-84.948l-38.956-39.092c-8.989-9.772-11.237-14.282-11.237-28.567V382.738
						c0-6.014,2.248-9.021,7.491-9.021c5.244,0,7.492,3.007,7.492,9.021v147.345h69.671V379.731
						c0-36.084-15.732-63.148-68.922-63.148h-16.482c-52.439,0-72.667,27.064-72.667,69.161v127.047
						c0,34.581,8.99,59.39,32.963,81.942l39.705,39.094c10.488,10.521,12.735,16.535,12.735,31.57v145.088
						c0,7.52-2.248,12.027-8.24,12.027c-5.994,0-7.492-4.508-7.492-12.027V641.343h-71.916v174.41
						C105.725,860.101,129.699,883.405,177.643,883.405z M308.878,879.647h71.917V387.248h32.963v-66.905H276.666v66.907h32.212
						V879.647z M502.005,376.723h5.993c6.742,0,7.491,3.008,7.491,9.773v163.131c0,6.767-2.248,9.774-8.242,9.774h-5.244
						L502.005,376.723L502.005,376.723z M502.005,622.55h5.244c7.491,0,8.242,4.51,8.242,9.773v229.285
						c0,8.268,2.248,15.035,5.244,18.041h71.169v-1.5c-1.499-4.512-2.997-10.527-2.997-18.797V621.046
						c0-23.306-14.982-36.083-26.969-40.595c11.237-5.263,25.471-17.292,25.471-46.608V372.216
						c0-34.581-19.479-51.871-44.949-51.871H428.591v559.304h73.416L502.005,622.55L502.005,622.55z M683.216,320.343H609.8v559.304
						h73.416V320.343z M776.774,879.647l-0.75-225.523l22.477,225.523h76.416L836.71,578.193l35.209-257.852h-71.916
						l-23.979,211.246l0.748-211.244h-71.916v559.304H776.774L776.774,879.647z M889.813,320.343v559.304h123.609v-67.656h-51.691
						V619.54h43.447v-69.161h-43.447V387.248h50.191v-66.905H889.813z M1031.321,320.343c0,48.113,14.982,352.574,17.23,468.343
						h38.953c2.246-115.768,17.227-419.479,17.98-468.343H1031.321z M1099.489,798.46h-62.924v81.188h62.924V798.46z"/>
				</g>
			</g>
		</g>
	</g>
</g>
</svg>
