<?xml version="1.0" encoding="utf-8"?>
<!-- Generator: Adobe Illustrator 16.0.0, SVG Export Plug-In . SVG Version: 6.00 Build 0)  -->
<!DOCTYPE svg PUBLIC "-//W3C//DTD SVG 1.1//EN" "http://www.w3.org/Graphics/SVG/1.1/DTD/svg11.dtd">
<svg version="1.1" id="Layer_1" xmlns="http://www.w3.org/2000/svg" xmlns:xlink="http://www.w3.org/1999/xlink" x="0px" y="0px"
	 width="167.036px" height="114.881px" viewBox="0 0 167.036 114.881" enable-background="new 0 0 167.036 114.881"
	 xml:space="preserve">
<g>
	<rect x="1.56" y="1.488" fill="none" width="165.476" height="111.905"/>
	<path d="M11.159,1.491l3,70.197l-0.3-70.197h6.3v111.595h-7.95l-3.75-78.897l0.15,78.897h-6.15V1.491H11.159z"/>
	<path d="M34.857,1.491v7.5h-4.95v40.948h4.65v7.8h-4.65v47.698h5.1v7.65H21.958V1.491H34.857z"/>
	<path d="M39.506,113.086l-3.6-111.595h8.4l0.6,87.596l1.8-87.596h7.649l1.8,87.596l0.6-87.596h7.95l-3.75,111.595h-9.15
		l-1.2-78.447l-1.35,78.447H39.506z"/>
	<path d="M73.556,1.491c0,13.949-1.05,65.997-1.65,98.846h-4.35c-0.6-32.849-1.65-85.046-1.65-98.846H73.556z M73.406,113.086h-7.35
		v-11.549h7.35V113.086z"/>
	<path d="M83.304,113.086h-7.95V1.491h7.95V113.086z"/>
	<path d="M93.052,113.386c-5.25,0-7.95-2.7-7.95-7.95V62.389h7.95v42.598c0,0.9,0.3,1.35,0.75,1.35c0.6,0,0.9-0.45,0.9-1.35V65.539
		c0-2.4-0.3-3-1.35-4.65l-5.1-6.75c-2.4-3.45-3-6.149-3-10.799V9.591c0-5.4,1.95-8.4,7.95-8.4h1.65c6,0,7.65,3,7.65,7.8v37.798
		h-7.65V9.141c0-0.75-0.3-1.05-0.75-1.05c-0.6,0-0.9,0.3-0.9,1.05v34.799c0,2.4,0.3,2.85,1.35,4.5l5.1,6.9c2.85,3.6,3,6,3,10.799
		v38.699c0,5.7-2.7,8.549-7.95,8.549H93.052z"/>
	<path d="M112.401,113.386c-5.25,0-7.95-2.7-7.95-7.95V62.389h7.95v42.598c0,0.9,0.3,1.35,0.75,1.35c0.6,0,0.9-0.45,0.9-1.35V65.539
		c0-2.4-0.3-3-1.35-4.65l-5.1-6.75c-2.4-3.45-3-6.149-3-10.799V9.591c0-5.4,1.95-8.4,7.95-8.4h1.65c6,0,7.65,3,7.65,7.8v37.798
		h-7.65V9.141c0-0.75-0.3-1.05-0.75-1.05c-0.6,0-0.9,0.3-0.9,1.05v34.799c0,2.4,0.3,2.85,1.35,4.5l5.1,6.9c2.85,3.6,3,6,3,10.799
		v38.699c0,5.7-2.7,8.549-7.95,8.549H112.401z"/>
	<path d="M132.051,113.386c-6.149,0-8.25-3.45-8.25-7.649V1.491h7.95v103.346c0,0.75,0.3,1.2,0.75,1.2c0.6,0,0.9-0.45,0.9-1.2V1.491
		h7.95v104.246c0,4.2-2.4,7.649-8.25,7.649H132.051z"/>
	<path d="M156.05,1.491v7.5h-4.95v40.948h4.65v7.8h-4.65v47.698h5.1v7.65h-13.049V1.491H156.05z"/>
	<path d="M165.349,1.491c0,13.949-1.05,65.997-1.65,98.846h-4.35c-0.6-32.849-1.65-85.046-1.65-98.846H165.349z M165.199,113.086
		h-7.35v-11.549h7.35V113.086z"/>
</g>
<g>
</g>
<g>
</g>
<g>
</g>
<g>
</g>
<g>
</g>
<g>
</g>
<g>
</g>
<g>
</g>
<g>
</g>
<g>
</g>
<g>
</g>
<g>
</g>
<g>
</g>
<g>
</g>
<g>
</g>
</svg>
