<?xml version="1.0" encoding="UTF-8"?>
<svg width="550px" height="309px" viewBox="0 0 550 309" version="1.1" xmlns="http://www.w3.org/2000/svg" xmlns:xlink="http://www.w3.org/1999/xlink">
    <!-- Generator: Sketch 42 (36781) - http://www.bohemiancoding.com/sketch -->
    <title>STRIKE! LogoSTRIKE! logo big</title>
    <desc>Created with Sketch.</desc>
    <defs></defs>
    <g id="Welcome" stroke="none" stroke-width="1" fill="none" fill-rule="evenodd">
        <g id="Menu-Expanded" transform="translate(-86.000000, -25.000000)" fill="#FFFFFF">
            <g id="Big-Menu">
                <g id="STRIKE!-Logo">
                    <g transform="translate(83.000000, 25.000000)">
                        <path d="M42.5970529,308.369455 L51.5515019,308.369455 C79.2288897,308.369455 92.2535427,292.440436 92.2535427,266.708945 L92.2535427,188.289164 C92.2535427,167.050473 87.3692978,156.022691 71.9025223,142.135855 L50.7374611,120.897164 C45.8532162,115.587491 44.632155,113.136873 44.632155,105.376582 L44.632155,36.3508364 C44.632155,33.0833455 45.8532162,31.4496 48.7023591,31.4496 C51.5515019,31.4496 52.7725631,33.0833455 52.7725631,36.3508364 L52.7725631,116.404364 L90.6254611,116.404364 L90.6254611,34.7170909 C90.6254611,15.1121455 82.0780325,0.408436364 53.1795835,0.408436364 L44.2251346,0.408436364 C15.733706,0.408436364 4.74415497,15.1121455 4.74415497,37.9845818 L4.74415497,107.010327 C4.74415497,125.7984 9.62839987,139.2768 22.6530529,151.529891 L44.2251346,172.768582 C49.9234203,178.486691 51.1444815,181.754182 51.1444815,189.922909 L51.1444815,268.751127 C51.1444815,272.835491 49.9234203,275.286109 46.667257,275.286109 C43.4110938,275.286109 42.5970529,272.835491 42.5970529,268.751127 L42.5970529,176.852945 L3.52309375,176.852945 L3.52309375,271.610182 C3.52309375,295.707927 16.5477468,308.369455 42.5970529,308.369455 Z M117.443584,306.327273 L156.517543,306.327273 L156.517543,38.8014545 L174.426441,38.8014545 L174.426441,2.45061818 L99.941706,2.45061818 L99.941706,38.8014545 L117.443584,38.8014545 L117.443584,306.327273 Z M224.851747,33.0833455 L228.10791,33.0833455 C231.771094,33.0833455 232.178114,34.7170909 232.178114,38.3930182 L232.178114,127.023709 C232.178114,130.699636 230.957053,132.333382 227.70089,132.333382 L224.851747,132.333382 L224.851747,33.0833455 Z M224.851747,166.642036 L227.70089,166.642036 C231.771094,166.642036 232.178114,169.092655 232.178114,171.951709 L232.178114,296.5248 C232.178114,301.0176 233.399175,304.693527 235.027257,306.327273 L273.694196,306.327273 L273.694196,305.5104 C272.880155,303.059782 272.066114,299.792291 272.066114,295.299491 L272.066114,165.825164 C272.066114,153.163636 263.925706,146.220218 257.413379,143.7696 C263.518686,140.910545 271.252073,134.375564 271.252073,118.446545 L271.252073,30.6327273 C271.252073,11.8446545 260.669543,2.45061818 246.830849,2.45061818 L184.963747,2.45061818 L184.963747,306.327273 L224.851747,306.327273 L224.851747,166.642036 Z M323.305461,2.45061818 L283.417461,2.45061818 L283.417461,306.327273 L323.305461,306.327273 L323.305461,2.45061818 Z M374.137788,306.327273 L373.730767,183.796364 L385.941379,306.327273 L427.457461,306.327273 L406.69942,142.544291 L425.829379,2.45061818 L386.75542,2.45061818 L373.730767,117.221236 L374.137788,2.45061818 L335.063828,2.45061818 L335.063828,306.327273 L374.137788,306.327273 Z M435.552645,2.45061818 L435.552645,306.327273 L502.711012,306.327273 L502.711012,269.568 L474.626604,269.568 L474.626604,165.008291 L498.233788,165.008291 L498.233788,127.432145 L474.626604,127.432145 L474.626604,38.8014545 L501.896971,38.8014545 L501.896971,2.45061818 L435.552645,2.45061818 Z M512.434277,2.45061818 C512.434277,28.5905455 520.574686,194.007273 521.795747,256.906473 L542.960808,256.906473 C544.181869,194.007273 552.322277,28.9989818 552.729298,2.45061818 L512.434277,2.45061818 Z M549.473135,262.216145 L515.28342,262.216145 L515.28342,306.327273 L549.473135,306.327273 L549.473135,262.216145 Z" id="STRIKE!"></path>
                    </g>
                </g>
            </g>
        </g>
    </g>
</svg>